# xmcd CD database file
#
# Track frame offsets:
#	150
#	11570
#	29355
#	43427
#	61217
#	76057
#	87467
#	98910
#	108185
#	119192
#	130852
#	140350
#	158120
#	170000
#	184945
#	197402
#	209720
#
# Disc length: 2968 seconds
#
# Revision: 0
# Processed by: cddbd v1.5PL3 Copyright (c) Steve Scherf et al.
# Submitted via: CDex 1.51
#
DISCID=f20b9611
DTITLE=Harry Connick, SR. - All of Me
DYEAR=1994
DGENRE=Jazz
TTITLE0=Bye Bye Blackbird
TTITLE1=It Had To Be You
TTITLE2=That's How Much I Love You
TTITLE3=All of Me
TTITLE4=My Buddy
TTITLE5=Mean To Me
TTITLE6=Pennies From Heaven
TTITLE7=Up A lazy river
TTITLE8=Five Foot Two, Eyes of Blue
TTITLE9=If I Had You
TTITLE10=Doctor Jazz
TTITLE11=The One I Love Belongs To Somebody Else
TTITLE12=Just In Time
TTITLE13=How About You - My Baby  Just Cares For Me
TTITLE14=In A Shanty In Old Shanty Town
TTITLE15=I'm Gonna Sit Right Down And Write Myself A Letter
TTITLE16=I Love Paris
EXTD=YEAR: 1994
EXTT0=
EXTT1=
EXTT2=
EXTT3=
EXTT4=
EXTT5=
EXTT6=
EXTT7=
EXTT8=
EXTT9=
EXTT10=
EXTT11=
EXTT12=
EXTT13=
EXTT14=
EXTT15=
EXTT16=
PLAYORDER=
